<mxfile host="Electron" modified="2024-01-12T02:39:34.555Z" agent="Mozilla/5.0 (Windows NT 10.0; Win64; x64) AppleWebKit/537.36 (KHTML, like Gecko) draw.io/22.1.16 Chrome/120.0.6099.109 Electron/28.1.0 Safari/537.36" etag="sdPWpsLt_zyKl2TCEQ7U" version="22.1.16" type="device">
  <diagram name="Página-1" id="jDkEsRl_powPCTk7Kvcg">
    <mxGraphModel dx="1120" dy="532" grid="1" gridSize="10" guides="1" tooltips="1" connect="1" arrows="1" fold="1" page="1" pageScale="1" pageWidth="827" pageHeight="1169" math="0" shadow="0">
      <root>
        <mxCell id="0" />
        <mxCell id="1" parent="0" />
        <mxCell id="9Y0xAlbiT_OAO1_opjaF-1" value="DB" style="strokeWidth=2;html=1;shape=mxgraph.flowchart.database;whiteSpace=wrap;" vertex="1" parent="1">
          <mxGeometry x="530" y="390" width="60" height="60" as="geometry" />
        </mxCell>
        <mxCell id="9Y0xAlbiT_OAO1_opjaF-17" style="edgeStyle=orthogonalEdgeStyle;rounded=0;orthogonalLoop=1;jettySize=auto;html=1;exitX=0.5;exitY=1;exitDx=0;exitDy=0;entryX=0.5;entryY=0;entryDx=0;entryDy=0;" edge="1" parent="1" source="9Y0xAlbiT_OAO1_opjaF-2" target="9Y0xAlbiT_OAO1_opjaF-4">
          <mxGeometry relative="1" as="geometry" />
        </mxCell>
        <mxCell id="9Y0xAlbiT_OAO1_opjaF-2" value="Request / Response" style="rounded=1;whiteSpace=wrap;html=1;absoluteArcSize=1;arcSize=14;strokeWidth=2;" vertex="1" parent="1">
          <mxGeometry x="140" y="110" width="210" height="50" as="geometry" />
        </mxCell>
        <mxCell id="9Y0xAlbiT_OAO1_opjaF-18" style="edgeStyle=orthogonalEdgeStyle;rounded=0;orthogonalLoop=1;jettySize=auto;html=1;exitX=0;exitY=0.5;exitDx=0;exitDy=0;" edge="1" parent="1" source="9Y0xAlbiT_OAO1_opjaF-3">
          <mxGeometry relative="1" as="geometry">
            <mxPoint x="250" y="185" as="targetPoint" />
          </mxGeometry>
        </mxCell>
        <mxCell id="9Y0xAlbiT_OAO1_opjaF-3" value="Schema" style="rounded=1;whiteSpace=wrap;html=1;absoluteArcSize=1;arcSize=14;strokeWidth=2;" vertex="1" parent="1">
          <mxGeometry x="400" y="160" width="80" height="50" as="geometry" />
        </mxCell>
        <mxCell id="9Y0xAlbiT_OAO1_opjaF-19" style="edgeStyle=orthogonalEdgeStyle;rounded=0;orthogonalLoop=1;jettySize=auto;html=1;exitX=0.5;exitY=1;exitDx=0;exitDy=0;entryX=0.5;entryY=0;entryDx=0;entryDy=0;" edge="1" parent="1" source="9Y0xAlbiT_OAO1_opjaF-4" target="9Y0xAlbiT_OAO1_opjaF-5">
          <mxGeometry relative="1" as="geometry" />
        </mxCell>
        <mxCell id="9Y0xAlbiT_OAO1_opjaF-22" style="edgeStyle=orthogonalEdgeStyle;rounded=0;orthogonalLoop=1;jettySize=auto;html=1;exitX=0;exitY=0.5;exitDx=0;exitDy=0;entryX=0;entryY=0.75;entryDx=0;entryDy=0;" edge="1" parent="1" source="9Y0xAlbiT_OAO1_opjaF-4" target="9Y0xAlbiT_OAO1_opjaF-2">
          <mxGeometry relative="1" as="geometry" />
        </mxCell>
        <mxCell id="9Y0xAlbiT_OAO1_opjaF-4" value="Route / Controller" style="rounded=1;whiteSpace=wrap;html=1;absoluteArcSize=1;arcSize=14;strokeWidth=2;" vertex="1" parent="1">
          <mxGeometry x="180" y="210" width="130" height="50" as="geometry" />
        </mxCell>
        <mxCell id="9Y0xAlbiT_OAO1_opjaF-14" style="edgeStyle=orthogonalEdgeStyle;rounded=0;orthogonalLoop=1;jettySize=auto;html=1;exitX=0.5;exitY=1;exitDx=0;exitDy=0;" edge="1" parent="1" source="9Y0xAlbiT_OAO1_opjaF-5" target="9Y0xAlbiT_OAO1_opjaF-7">
          <mxGeometry relative="1" as="geometry" />
        </mxCell>
        <mxCell id="9Y0xAlbiT_OAO1_opjaF-20" style="edgeStyle=orthogonalEdgeStyle;rounded=0;orthogonalLoop=1;jettySize=auto;html=1;exitX=0.5;exitY=0;exitDx=0;exitDy=0;entryX=0.5;entryY=1;entryDx=0;entryDy=0;" edge="1" parent="1" source="9Y0xAlbiT_OAO1_opjaF-5" target="9Y0xAlbiT_OAO1_opjaF-4">
          <mxGeometry relative="1" as="geometry" />
        </mxCell>
        <mxCell id="9Y0xAlbiT_OAO1_opjaF-21" style="edgeStyle=orthogonalEdgeStyle;rounded=0;orthogonalLoop=1;jettySize=auto;html=1;exitX=0;exitY=0.5;exitDx=0;exitDy=0;entryX=0;entryY=0.25;entryDx=0;entryDy=0;" edge="1" parent="1" source="9Y0xAlbiT_OAO1_opjaF-5" target="9Y0xAlbiT_OAO1_opjaF-2">
          <mxGeometry relative="1" as="geometry" />
        </mxCell>
        <mxCell id="9Y0xAlbiT_OAO1_opjaF-5" value="Serviços&amp;nbsp;&lt;br&gt;(Lógica ed Negócios)" style="rounded=1;whiteSpace=wrap;html=1;absoluteArcSize=1;arcSize=14;strokeWidth=2;" vertex="1" parent="1">
          <mxGeometry x="180" y="300" width="130" height="50" as="geometry" />
        </mxCell>
        <mxCell id="9Y0xAlbiT_OAO1_opjaF-12" style="edgeStyle=orthogonalEdgeStyle;rounded=0;orthogonalLoop=1;jettySize=auto;html=1;exitX=0.5;exitY=0;exitDx=0;exitDy=0;" edge="1" parent="1" source="9Y0xAlbiT_OAO1_opjaF-6">
          <mxGeometry relative="1" as="geometry">
            <mxPoint x="414" y="420" as="targetPoint" />
          </mxGeometry>
        </mxCell>
        <mxCell id="9Y0xAlbiT_OAO1_opjaF-6" value="Models" style="rounded=1;whiteSpace=wrap;html=1;absoluteArcSize=1;arcSize=14;strokeWidth=2;" vertex="1" parent="1">
          <mxGeometry x="374" y="480" width="80" height="50" as="geometry" />
        </mxCell>
        <mxCell id="9Y0xAlbiT_OAO1_opjaF-13" style="edgeStyle=orthogonalEdgeStyle;rounded=0;orthogonalLoop=1;jettySize=auto;html=1;exitX=0.5;exitY=0;exitDx=0;exitDy=0;" edge="1" parent="1" source="9Y0xAlbiT_OAO1_opjaF-7" target="9Y0xAlbiT_OAO1_opjaF-5">
          <mxGeometry relative="1" as="geometry" />
        </mxCell>
        <mxCell id="9Y0xAlbiT_OAO1_opjaF-7" value="Repositorio&lt;br&gt;(Acesso aos dados)" style="rounded=1;whiteSpace=wrap;html=1;absoluteArcSize=1;arcSize=14;strokeWidth=2;" vertex="1" parent="1">
          <mxGeometry x="180" y="390" width="130" height="60" as="geometry" />
        </mxCell>
        <mxCell id="9Y0xAlbiT_OAO1_opjaF-15" style="edgeStyle=orthogonalEdgeStyle;rounded=0;orthogonalLoop=1;jettySize=auto;html=1;exitX=0.5;exitY=1;exitDx=0;exitDy=0;entryX=0.75;entryY=0;entryDx=0;entryDy=0;" edge="1" parent="1" source="9Y0xAlbiT_OAO1_opjaF-8" target="9Y0xAlbiT_OAO1_opjaF-2">
          <mxGeometry relative="1" as="geometry" />
        </mxCell>
        <mxCell id="9Y0xAlbiT_OAO1_opjaF-8" value="Aplicativo" style="rounded=1;whiteSpace=wrap;html=1;absoluteArcSize=1;arcSize=14;strokeWidth=2;" vertex="1" parent="1">
          <mxGeometry x="280" y="10" width="80" height="50" as="geometry" />
        </mxCell>
        <mxCell id="9Y0xAlbiT_OAO1_opjaF-16" style="edgeStyle=orthogonalEdgeStyle;rounded=0;orthogonalLoop=1;jettySize=auto;html=1;exitX=0.5;exitY=1;exitDx=0;exitDy=0;entryX=0.25;entryY=0;entryDx=0;entryDy=0;" edge="1" parent="1" source="9Y0xAlbiT_OAO1_opjaF-9" target="9Y0xAlbiT_OAO1_opjaF-2">
          <mxGeometry relative="1" as="geometry" />
        </mxCell>
        <mxCell id="9Y0xAlbiT_OAO1_opjaF-9" value="Sites" style="rounded=1;whiteSpace=wrap;html=1;absoluteArcSize=1;arcSize=14;strokeWidth=2;" vertex="1" parent="1">
          <mxGeometry x="130" y="10" width="80" height="50" as="geometry" />
        </mxCell>
        <mxCell id="9Y0xAlbiT_OAO1_opjaF-10" style="edgeStyle=orthogonalEdgeStyle;rounded=0;orthogonalLoop=1;jettySize=auto;html=1;exitX=1;exitY=0.5;exitDx=0;exitDy=0;entryX=0;entryY=0.5;entryDx=0;entryDy=0;entryPerimeter=0;" edge="1" parent="1" source="9Y0xAlbiT_OAO1_opjaF-7" target="9Y0xAlbiT_OAO1_opjaF-1">
          <mxGeometry relative="1" as="geometry" />
        </mxCell>
        <mxCell id="9Y0xAlbiT_OAO1_opjaF-11" style="edgeStyle=orthogonalEdgeStyle;rounded=0;orthogonalLoop=1;jettySize=auto;html=1;exitX=0;exitY=0.5;exitDx=0;exitDy=0;exitPerimeter=0;" edge="1" parent="1" source="9Y0xAlbiT_OAO1_opjaF-1">
          <mxGeometry relative="1" as="geometry">
            <mxPoint x="310" y="420" as="targetPoint" />
          </mxGeometry>
        </mxCell>
      </root>
    </mxGraphModel>
  </diagram>
</mxfile>
